<svg height="511pt" viewBox="0 -14 511.99935 511" width="511pt" xmlns="http://www.w3.org/2000/svg"><path d="m293.628906 482.5c-12.636718 0-24.804687-5.324219-33.382812-14.605469-8.582032-9.285156-12.933594-21.839843-11.941406-34.449219 2.09375-26.574218 6.8125-51.851562 14.019531-75.132812 4.332031-13.996094 1.859375-28.746094-6.785157-40.472656-8.53125-11.574219-21.683593-18.210938-36.082031-18.210938h-176.328125c-23.621094 0-42.96875-19.117187-43.128906-42.621094-.128906-19.582031 7.25-38.15625 20.773438-52.304687 5.285156-5.53125 7.453124-13.5 5.65625-20.792969-4.652344-18.886718-1.855469-38.566406 7.867187-55.410156 9.605469-16.632812 25.023437-28.824219 43.417969-34.332031 7.6875-2.300781 13.652344-8.265625 15.953125-15.953125 5.507812-18.394532 17.699219-33.8125 34.332031-43.417969 16.84375-9.722656 36.519531-12.519531 55.410156-7.867187 7.34375 1.808593 15.253906-.433594 21.152344-6 13.964844-13.171876 32.230469-20.429688 51.4375-20.429688 19.203125 0 37.46875 7.257812 51.433594 20.429688 5.902344 5.566406 13.808594 7.8125 21.15625 6 18.890625-4.652344 38.5625-1.855469 55.410156 7.871093 16.632812 9.601563 28.824219 25.019531 34.332031 43.414063 2.300781 7.691406 8.265625 13.652344 15.953125 15.957031 18.394532 5.503906 33.8125 17.699219 43.414063 34.332031 9.726562 16.84375 12.523437 36.519532 7.871093 55.40625-1.785156 7.25.484376 15.328125 5.925782 21.082032 13.347656 14.109374 20.628906 32.582031 20.5 52.015624-.152344 23.183594-18.980469 42.105469-42.171875 42.613282v.011718c-30.6875 0-59.9375 12.960938-80.25 35.566407l-.480469.535156c-15.761719 17.660156-43.273438 55.105469-50.429688 107.441406-3.066406 22.417969-22.425781 39.324219-45.035156 39.324219zm0 0" fill="#fde4e4"/><path d="m491.5 204.988281c-5.441406-5.753906-7.714844-13.828125-5.929688-21.078125 4.652344-18.886718 1.855469-38.566406-7.867187-55.410156-9.601563-16.632812-25.023437-28.824219-43.417969-34.332031-7.6875-2.300781-13.652344-8.265625-15.953125-15.953125-5.507812-18.394532-17.699219-33.8125-34.332031-43.417969-16.84375-9.726563-36.519531-12.519531-55.410156-7.867187-7.347656 1.808593-15.253906-.433594-21.152344-6-13.964844-13.175782-32.230469-20.429688-51.4375-20.429688v318.003906c8.257812 11.617188 10.574219 26.070313 6.320312 39.808594-7.207031 23.28125-11.921874 48.558594-14.015624 75.132812-.992188 12.605469 3.359374 25.164063 11.941406 34.449219 8.578125 9.28125 20.746094 14.605469 33.382812 14.605469 22.609375 0 41.96875-16.90625 45.035156-39.328125 7.152344-52.332031 34.667969-89.78125 50.429688-107.4375l.480469-.539063c20.3125-22.601562 49.5625-35.566406 80.25-35.566406v-.011718c23.191406-.507813 42.019531-19.425782 42.171875-42.609376.128906-19.4375-7.152344-37.910156-20.496094-52.019531zm0 0" fill="#fdd0d0"/><path d="m347.621094 316.519531c18.191406-29.085937 35.378906-56.554687 35.378906-90.019531 0-1.667969-.050781-3.328125-.128906-4.980469 17.039062-3.527343 42.21875-13.375 52.226562-40.894531l-28.195312-10.25c-5.152344 14.167969-19.832032 19.652344-30.105469 21.773438-4.222656-11.074219-10.519531-21.125-18.703125-29.582032-14.90625-15.398437-35.242188-24.550781-57.875-26.253906 14.359375-16.816406 33.53125-20.867188 34.523438-21.066406l-5.484376-29.492188c-1.988281.371094-46.265624 9.109375-65.878906 53.324219-4.613281.90625-8.992187 1.910156-13.171875 2.871094-28.300781 6.507812-46.992187 10.808593-86.433593-29.890625l-21.542969 20.878906c16.808593 17.347656 31.578125 28.199219 44.941406 34.699219-.625 4.089843-2.101563 10.289062-5.597656 16.542969-3.609375 6.460937-16.214844 9.175781-29.5625 12.046874-15.605469 3.359376-33.296875 7.164063-46.851563 18.953126l19.683594 22.636718c7.730469-6.722656 20.824219-9.539062 33.480469-12.261718 18.378906-3.957032 39.210937-8.4375 49.4375-26.738282 4.648437-8.316406 7.113281-16.4375 8.417969-22.902344 14.621093 1.277344 27.78125-1.746093 40.75-4.726562 11.085937-2.550781 22.550781-5.1875 35.570312-5.1875 35.621094 0 60.5 24.878906 60.5 60.5 0 8.121094-1.457031 15.910156-4.015625 23.675781-15.957031-1.582031-28.652344-7.039062-37.792969-16.320312-8.222656-8.339844-10.636718-17-10.660156-17.085938l.042969.179688-29.144531 7.097656c.375 1.546875 4.042968 15.492187 16.847656 29.253906 8.945312 9.613281 23.886718 20.644531 47.386718 25.210938-4.054687 7.035156-8.621093 14.335937-13.472656 22.09375-9.097656 14.539062-19.011718 30.402343-27.898437 48.589843-.375 6.007813-1.46875 12.039063-3.308594 17.984376-6.554687 21.167968-10.851563 44.253906-12.769531 68.621093-.34375 4.355469 1.101562 8.523438 4.066406 11.730469 2.957031 3.203125 6.988281 4.964844 11.347656 4.964844 1.324219 0 2.609375-.179688 3.84375-.503906 3.617188-61.046876 28.222656-100.429688 50.148438-135.472657zm0 0" fill="#fdd0d0"/><path d="m435.097656 180.625-28.195312-10.25c-5.152344 14.167969-19.832032 19.652344-30.105469 21.773438-4.222656-11.074219-10.523437-21.125-18.707031-29.582032-14.902344-15.398437-35.238282-24.550781-57.871094-26.253906 14.355469-16.816406 33.53125-20.867188 34.523438-21.066406l-5.484376-29.492188c-1.988281.371094-46.265624 9.109375-65.878906 53.324219-2.53125.5-4.984375 1.023437-7.378906 1.558594v30.761719c.308594-.070313.621094-.140626.929688-.210938 11.085937-2.550781 22.550781-5.1875 35.570312-5.1875 35.621094 0 60.5 24.878906 60.5 60.5 0 8.121094-1.460938 15.910156-4.015625 23.675781-15.960937-1.582031-28.652344-7.039062-37.796875-16.320312-8.21875-8.339844-10.632812-17-10.65625-17.085938l.042969.179688-29.148438 7.097656c.378907 1.546875 4.046875 15.492187 16.851563 29.253906 8.945312 9.613281 23.886718 20.644531 47.386718 25.210938-4.054687 7.035156-8.621093 14.335937-13.476562 22.09375-9.09375 14.539062-19.007812 30.402343-27.898438 48.589843-.371093 6.007813-1.464843 12.039063-3.308593 17.984376-6.550781 21.167968-10.847657 44.253906-12.765625 68.621093-.34375 4.355469 1.101562 8.523438 4.0625 11.730469 2.960937 3.203125 6.992187 4.964844 11.351562 4.964844 1.324219 0 2.609375-.179688 3.84375-.503906 3.617188-61.050782 28.226563-100.433594 50.148438-135.476563 18.195312-29.082031 35.378906-56.554687 35.378906-90.019531 0-1.667969-.046875-3.328125-.128906-4.980469 17.039062-3.523437 42.21875-13.371094 52.226562-40.890625zm0 0" fill="#f7bebe"/></svg>