<svg height="681pt" viewBox="-21 -40 681.33343 681" width="681pt" xmlns="http://www.w3.org/2000/svg"><path d="m613.179688 254.03125c-6.789063-7.179688-9.625-17.253906-7.398438-26.296875 5.804688-23.5625 2.3125-48.113281-9.816406-69.128906-11.976563-20.75-31.21875-35.957031-54.164063-42.828125-9.59375-2.871094-17.035156-10.3125-19.902343-19.902344-6.875-22.949219-22.082032-42.183594-42.832032-54.167969-21.015625-12.136719-45.5625-15.621093-69.128906-9.816406-9.167969 2.257813-19.03125-.539063-26.386719-7.484375-17.421875-16.4375-40.210937-25.488281-64.171875-25.488281-23.957031 0-46.75 9.050781-64.171875 25.488281-7.359375 6.945312-17.226562 9.742188-26.390625 7.484375-23.566406-5.804687-48.113281-2.320313-69.125 9.816406-20.75 11.976563-35.960937 31.214844-42.832031 54.167969-2.871094 9.589844-10.3125 17.03125-19.902344 19.902344-22.949219 6.871094-42.183593 22.078125-54.167969 42.828125-12.128906 21.015625-15.617187 45.566406-9.8125 69.128906 2.238282 9.097656-.460937 19.039063-7.058593 25.941406-16.871094 17.648438-26.078125 40.824219-25.91406275 65.253907.19921875 29.316406 24.33593775 53.171874 53.80468775 53.171874h219.980468c17.960938 0 34.371094 8.277344 45.011719 22.71875 10.785157 14.628907 13.871094 33.03125 8.460938 50.492188-8.992188 29.042969-14.871094 60.578125-17.484375 93.730469-1.238282 15.734375 4.191406 31.394531 14.898437 42.980469 10.699219 11.578124 25.882813 18.21875 41.644531 18.21875 28.207032 0 52.359376-21.089844 56.1875-49.058594 8.921876-65.292969 43.25-112.011719 62.914063-134.039063l.597656-.667969c25.339844-28.203124 61.832031-44.375 100.117188-44.375v-.011718c28.933593-.636719 52.421875-24.238282 52.613281-53.160156.160156-24.25-8.925781-47.296876-25.570312-64.898438zm-135.523438 20.625c.097656 2.058594.160156 4.128906.160156 6.210938 0 41.75-21.441406 76.019531-44.136718 112.304687-27.351563 43.71875-58.050782 92.851563-62.566407 169.015625-1.539062.398438-3.144531.628906-4.792969.628906-5.4375 0-10.464843-2.203125-14.160156-6.195312-3.699218-4.003906-5.5-9.199219-5.074218-14.632813 2.398437-30.398437 7.753906-59.207031 15.933593-85.609375 2.292969-7.417968 3.65625-14.941406 4.125-22.4375 11.085938-22.695312 23.460938-42.480468 34.804688-60.617187 6.058593-9.679688 11.75-18.785157 16.808593-27.570313-29.3125-5.695312-47.953124-19.453125-59.113281-31.445312-15.972656-17.167969-20.554687-34.570313-21.023437-36.496094l36.367187-8.855469-.058593-.222656c.027343.105469 3.039062 10.90625 13.296874 21.316406 11.402344 11.574219 27.242188 18.386719 47.15625 20.359375 3.183594-9.6875 5.003907-19.40625 5.003907-29.539062 0-44.441406-31.039063-75.476563-75.472657-75.476563-16.246093 0-30.550781 3.289063-44.382812 6.46875-16.179688 3.722657-32.589844 7.492188-50.835938 5.898438-1.628906 8.066406-4.699218 18.199219-10.503906 28.574219-12.757812 22.832031-38.746094 28.421874-61.671875 33.355468-15.792969 3.398438-32.121093 6.914063-41.773437 15.300782l-24.554688-28.242188c16.914063-14.707031 38.980469-19.460938 58.453125-23.648438 16.648438-3.582031 32.375-6.964843 36.878907-15.027343 4.359374-7.800781 6.203124-15.535157 6.980468-20.640625-16.667968-8.109375-35.089844-21.648438-56.066406-43.285156l26.878906-26.046876c49.203125 50.769532 72.523438 45.40625 107.828125 37.289063 5.214844-1.199219 10.683594-2.453125 16.433594-3.582031 24.46875-55.160156 79.707031-66.066406 82.1875-66.523438l6.847656 36.792969c-1.238281.246094-25.160156 5.300781-43.074219 26.28125 28.234376 2.117187 53.605469 13.542969 72.203126 32.753906 10.207031 10.550781 18.0625 23.089844 23.332031 36.902344 12.820312-2.644531 31.136719-9.492187 37.5625-27.164063l35.171875 12.789063c-12.480469 34.328125-43.894532 46.613281-65.152344 51.015625zm0 0"/></svg>