<svg height="511pt" viewBox="0 -14 511.99935 511" width="511pt" xmlns="http://www.w3.org/2000/svg"><path d="m491.5 204.988281c-5.441406-5.753906-7.714844-13.828125-5.929688-21.078125 4.652344-18.886718 1.855469-38.566406-7.867187-55.410156-9.601563-16.632812-25.023437-28.824219-43.417969-34.332031-7.6875-2.300781-13.652344-8.265625-15.953125-15.953125-5.507812-18.394532-17.699219-33.8125-34.332031-43.417969-16.84375-9.726563-36.519531-12.519531-55.410156-7.867187-7.347656 1.808593-15.253906-.433594-21.152344-6-13.964844-13.175782-32.230469-20.429688-51.4375-20.429688-19.203125 0-37.472656 7.253906-51.4375 20.429688-5.898438 5.566406-13.808594 7.808593-21.152344 6-18.890625-4.652344-38.566406-1.859376-55.410156 7.867187-16.632812 9.601563-28.824219 25.019531-34.332031 43.417969-2.300781 7.6875-8.265625 13.652344-15.953125 15.953125-18.394532 5.507812-33.8125 17.699219-43.417969 34.332031-9.722656 16.84375-12.519531 36.523438-7.867187 55.410156 1.796874 7.292969-.367188 15.261719-5.65625 20.792969-13.523438 14.148437-20.902344 32.722656-20.773438 52.304687.160156 23.5 19.507812 42.621094 43.128906 42.621094h176.328125c14.398438 0 27.550781 6.636719 36.082031 18.210938 8.644532 11.726562 11.117188 26.476562 6.78125 40.472656-7.207031 23.28125-11.921874 48.558594-14.015624 75.132812-.992188 12.609376 3.359374 25.164063 11.941406 34.449219 8.578125 9.28125 20.746094 14.605469 33.382812 14.605469 22.609375 0 41.96875-16.90625 45.035156-39.324219 7.152344-52.335937 34.667969-89.785156 50.429688-107.441406l.480469-.535156c20.3125-22.605469 49.5625-35.570313 80.25-35.570313v-.007812c23.191406-.511719 42.019531-19.429688 42.171875-42.613282.128906-19.4375-7.152344-37.910156-20.496094-52.019531zm-22.628906 64.640625v.003906c-38.839844.265626-75.828125 16.820313-101.628906 45.535157l-.523438.582031c-31.15625 34.910156-51.675781 78.71875-57.777344 123.359375-.863281 6.320313-5.53125 11.34375-11.46875 12.886719 3.617188-61.050782 28.226563-100.433594 50.148438-135.476563 18.191406-29.085937 35.378906-56.554687 35.378906-90.019531 0-1.667969-.050781-3.328125-.128906-4.980469 17.039062-3.527343 42.21875-13.375 52.226562-40.894531l-28.195312-10.25c-5.152344 14.167969-19.832032 19.652344-30.105469 21.773438-4.222656-11.074219-10.519531-21.125-18.703125-29.582032-14.90625-15.398437-35.242188-24.550781-57.875-26.253906 14.359375-16.816406 33.53125-20.867188 34.523438-21.066406l-5.484376-29.492188c-1.988281.371094-46.265624 9.109375-65.878906 53.324219-4.613281.90625-8.992187 1.910156-13.171875 2.871094-28.300781 6.507812-46.992187 10.808593-86.433593-29.890625l-21.542969 20.878906c16.808593 17.347656 31.578125 28.199219 44.941406 34.699219-.625 4.089843-2.101563 10.289062-5.597656 16.542969-3.609375 6.460937-16.214844 9.175781-29.5625 12.046874-15.605469 3.359376-33.296875 7.164063-46.851563 18.953126l19.683594 22.636718c7.730469-6.722656 20.824219-9.539062 33.480469-12.261718 18.378906-3.957032 39.210937-8.4375 49.4375-26.738282 4.648437-8.316406 7.113281-16.4375 8.417969-22.902344 14.621093 1.277344 27.78125-1.746093 40.75-4.726562 11.085937-2.550781 22.550781-5.1875 35.570312-5.1875 35.621094 0 60.5 24.878906 60.5 60.5 0 8.121094-1.457031 15.910156-4.015625 23.675781-15.957031-1.582031-28.652344-7.039062-37.792969-16.320312-8.222656-8.339844-10.636718-17-10.660156-17.085938l.042969.179688-29.144531 7.097656c.375 1.546875 4.042968 15.492187 16.847656 29.253906 8.945312 9.613281 23.886718 20.644531 47.386718 25.210938-4.054687 7.035156-8.621093 14.335937-13.472656 22.09375-9.097656 14.539062-19.011718 30.402343-27.898437 48.589843 1.082031-17.429687-3.925781-34.675781-14.605469-49.160156-14.246094-19.324218-36.199219-30.40625-60.230469-30.40625h-176.328125c-7.191406 0-13.082031-5.753906-13.128906-12.824218-.078125-11.746094 4.347656-22.886719 12.460938-31.375 12.304687-12.875 17.324218-31.535157 13.097656-48.699219-2.789063-11.328125-1.113282-23.128907 4.722656-33.234375 5.757812-9.976563 15.007812-17.289063 26.039062-20.589844 17.390626-5.207031 30.882813-18.699219 36.089844-36.089844 3.300782-11.035156 10.613282-20.28125 20.589844-26.039062 6.914062-3.992188 14.621094-6.039063 22.429688-6.039063 3.605468 0 7.230468.4375 10.804687 1.316407 17.285156 4.257812 35.570313-.714844 48.917969-13.304688 8.375-7.902344 19.332031-12.253906 30.851562-12.253906 11.515625 0 22.472656 4.351562 30.847656 12.253906 13.34375 12.589844 31.628907 17.5625 48.917969 13.304688 11.324219-2.789063 23.128907-1.113282 33.230469 4.722656 9.980469 5.757812 17.289062 15.003906 20.59375 26.035156 5.207031 17.394531 18.699219 30.886719 36.089844 36.09375 11.035156 3.300781 20.28125 10.613281 26.039062 20.589844 5.835938 10.105468 7.511719 21.90625 4.722656 33.234375-4.265624 17.3125.691407 35.582031 13.261719 48.871093 8.003907 8.460938 12.371094 19.542969 12.292969 31.203126-.046875 7.074218-5.9375 12.824218-13.128906 12.824218zm0 0"/></svg>