<?xml version="1.0" encoding="UTF-8" standalone="no"?>
<svg
   xmlns:dc="http://purl.org/dc/elements/1.1/"
   xmlns:cc="http://creativecommons.org/ns#"
   xmlns:rdf="http://www.w3.org/1999/02/22-rdf-syntax-ns#"
   xmlns:svg="http://www.w3.org/2000/svg"
   xmlns="http://www.w3.org/2000/svg"
   id="svg8"
   version="1.1"
   viewBox="0 0 1274.3546 164.33904"
   height="164.33904mm"
   width="1274.3546mm">
  <defs
     id="defs2" />
  <metadata
     id="metadata5">
    <rdf:RDF>
      <cc:Work
         rdf:about="">
        <dc:format>image/svg+xml</dc:format>
        <dc:type
           rdf:resource="http://purl.org/dc/dcmitype/StillImage" />
        <dc:title></dc:title>
      </cc:Work>
    </rdf:RDF>
  </metadata>
  <g
     transform="translate(32.338445,-1011.8398)"
     id="layer1">
    <path
       transform="matrix(0.86063837,0,0,0.45238071,-19.091713,843.32049)"
       style="fill:none;fill-opacity:1;stroke:#aad5c2;stroke-width:9.6158762;stroke-linecap:round;stroke-linejoin:round;stroke-miterlimit:4;stroke-dasharray:none;stroke-opacity:1"
       d="m -10.583333,614.5 c 0,-70.55583 0,-141.11137 14.1643914,-130.35475 C 17.74545,494.90188 45.861055,586.2776 75.847353,632.1388 105.83365,678 137.5836,678 158.78215,622.98862 c 21.19854,-55.01138 31.71788,-163.71114 52.88446,-147.83628 21.16659,15.87486 52.91668,156.98636 93.48622,128.76394 40.56953,-28.22242 89.95835,-225.7777 121.70829,-216.9584 31.74994,8.8193 45.86108,224.0141 59.97223,291.0418 14.11116,67.0277 28.22225,-14.11109 40.5694,-35.27777 12.34715,-21.16668 22.93052,17.63901 37.04172,-28.22246 14.1112,-45.86146 31.75001,-176.38864 49.38885,-158.74991 17.63883,17.63872 35.27776,183.44466 49.3889,211.66678 14.11115,28.22213 24.69446,-81.13884 47.62493,-75.84727 22.93047,5.29156 58.20835,125.23634 82.90283,79.37501 24.69449,-45.86133 38.80559,-257.52768 65.26386,-289.27772 26.45828,-31.75004 65.26388,116.41681 86.43058,156.98616 21.1667,40.56935 24.69447,-26.45834 34.92638,-80.29538 10.23192,-53.83703 28.5738,-97.85745 42.6847,-48.46906 14.111,49.3884 24.6944,190.5006 35.2778,234.59773 10.5834,44.09713 21.1667,-8.81944 31.7501,-44.09718 10.5834,-35.27774 21.1668,-52.91673 28.2222,-40.56983 7.0554,12.3469 10.5833,54.68097 19.4029,68.79204 8.8196,14.11107 22.9306,5e-5 29.9861,-12.3471 7.0554,-12.34714 7.0554,-22.93065 12.3471,-33.51385 5.2916,-10.58319 15.8752,-21.16679 22.9306,-7.8e-4 7.0554,21.16601 10.5832,74.08399 17.6389,89.95889 7.0557,15.87491 17.6389,-5.29162 24.7435,-35.81783 7.1046,-30.52621 10.5342,-68.25154 22.8813,-57.66837 12.3471,10.58316 33.514,70.5558 52.9169,84.66683 19.4029,14.11102 37.0417,-17.63893 52.9166,-70.55523 15.8748,-52.91629 29.9861,-127.00036 44.0971,-107.59777 14.111,19.40258 28.2222,132.29192 42.3334,245.18105"
       id="path6087" />
  </g>
</svg>
